<svg xmlns="http://www.w3.org/2000/svg" xmlns:xlink="http://www.w3.org/1999/xlink" viewBox="0 0 246.15 48.5"><defs><style>.acel-logo-1{fill:#f7a836;}.acel-logo-2{fill:#e73c2e;}.acel-logo-3{fill:url(#linear-gradient);}.acel-logo-4{fill:url(#linear-gradient-2);}.acel-logo-5{fill:#009fe4;}.acel-logo-6{fill:#0067b2;}.acel-logo-7{fill:#e21783;}.acel-logo-8{fill:#75ccf4;}.acel-logo-9{fill:#941f81;}.acel-logo-10{fill:#3b3089;}.acel-logo-11{fill:#243883;}</style><linearGradient id="linear-gradient" x1="7.01" y1="7.17" x2="26.86" y2="7.17" gradientUnits="userSpaceOnUse"><stop offset="0" stop-color="#525252"/><stop offset="0.07" stop-color="#787878"/><stop offset="0.15" stop-color="#9c9c9c"/><stop offset="0.24" stop-color="#bbb"/><stop offset="0.33" stop-color="#d4d4d4"/><stop offset="0.44" stop-color="#e7e7e7"/><stop offset="0.56" stop-color="#f5f5f5"/><stop offset="0.71" stop-color="#fdfdfd"/><stop offset="1" stop-color="#fff"/></linearGradient><linearGradient id="linear-gradient-2" x1="7.01" y1="18.85" x2="7.01" y2="0.16" xlink:href="#linear-gradient"/></defs><title>Artboard 4</title><g id="Isolation_Mode" data-name="Isolation Mode"><path class="acel-logo-1" d="M35.23,19H49.92c4.16,0-.8,2.22-.8-1.53v1.13l1.7,1.66,1.21.64c.89-.18-.2,1.35.61,2.39.51.66,2.45,2.34,2.55,2.51H44.85C40.68,25.84,35.23,22.8,35.23,19Z"/><path class="acel-logo-2" d="M52.26,20.31l.46.77c.89-.18.55,1.23,1.35,2.27a26.81,26.81,0,0,1,1.47,2.49l-.2,0c-1.44-.08-13.25.42-15.75-6.81H51.36"/><path class="acel-logo-3" d="M24.52,1.95A7,7,0,0,0,19.85.16H7v7H19.85a7,7,0,0,1,7,7v-7A7,7,0,0,0,24.52,1.95Z"/><path class="acel-logo-4" d="M7,18.85V7.17a7,7,0,0,1,7-7H7a7,7,0,0,0-7,7v4.67A7,7,0,0,0,7,18.85Z"/><path class="acel-logo-5" d="M24.52,1.95A7,7,0,0,0,19.85.16H7v7H19.85s7,7.6,7,11.47V7.17A7,7,0,0,0,24.52,1.95Z"/><path class="acel-logo-6" d="M7,18.85V7.13l7.5-7s0,0,0,0H7a7,7,0,0,0-7,7v4.67C0,15.71,1.56,18.85,7,18.85Z"/><path class="acel-logo-7" d="M43.61,0,55.54,25.83h0A12.33,12.33,0,0,1,45.06,19L39.36,6.7A4.71,4.71,0,0,1,43.61,0Z"/><path class="acel-logo-8" d="M19.85,7.17V18.82c0,4.54-6.78,7-10.65,7H19.85a7,7,0,0,0,7-7V14.18Z"/><path class="acel-logo-9" d="M43.67,0S35.05-.6,31.31,8.58c-4.81,11.78-8,17.27-19.8,17.27H22.61c6,0,9.62-2.21,13-8.86C38.81,10.73,39.2,3.94,43.67,0Z"/><path class="acel-logo-10" d="M0,17.46a8,8,0,0,0,7,8.39h5.44c3.93,0,7.37-4,7.37-7H7L0,10.76"/><path class="acel-logo-11" d="M205.45,7.09H211l4.15,12.43,4.19-12.43h5.47l-7.3,18.69h-4.78Z"/><path class="acel-logo-11" d="M199.58,7.09h5.26V25.64h-5.26Z"/><path class="acel-logo-11" d="M59.22,13.6v-.07A12.53,12.53,0,0,1,72.13,1C79.61,1,85,6.57,85,13.46v.07A12.53,12.53,0,0,1,72.07,26.06C64.59,26.06,59.22,20.48,59.22,13.6Zm20.18,0v-.07a7.36,7.36,0,0,0-7.34-7.61,7.25,7.25,0,0,0-7.27,7.55v.07a7.36,7.36,0,0,0,7.34,7.62A7.25,7.25,0,0,0,79.4,13.6Z"/><path class="acel-logo-11" d="M86.53,7.09h5.26V9.75a6.81,6.81,0,0,1,5.78-3c4.33,0,8.45,3.39,8.45,9.59v.07c0,6.2-4,9.59-8.45,9.59a7.12,7.12,0,0,1-5.78-2.77v8H86.53Zm14.23,9.31v-.07c0-3.08-2.08-5.12-4.53-5.12s-4.5,2-4.5,5.12v.07c0,3.08,2,5.12,4.5,5.12S100.76,19.52,100.76,16.4Z"/><path class="acel-logo-11" d="M107.09,16.47V16.4c0-5.3,3.77-9.66,9.17-9.66,6.2,0,9,4.81,9,10.07,0,.42,0,.9-.07,1.38H112.32a4.3,4.3,0,0,0,4.53,3.63,6.08,6.08,0,0,0,4.5-1.9l3,2.67a9.8,9.8,0,0,1-17.27-6.13Zm13.08-1.56c-.31-2.35-1.7-3.95-3.91-3.95s-3.6,1.56-4,3.95Z"/><path class="acel-logo-11" d="M126.82,7.09h5.26V9.72a6.56,6.56,0,0,1,5.43-3c4,0,6.3,2.63,6.3,6.89v12h-5.26V15.29c0-2.49-1.18-3.77-3.18-3.77s-3.29,1.28-3.29,3.77V25.64h-5.26Z"/><path class="acel-logo-11" d="M155.1,1.24H160l10.38,24.4h-5.57l-2.22-5.43H152.36l-2.22,5.43h-5.43Zm5.61,14.26-3.22-7.86-3.22,7.86Z"/><path class="acel-logo-11" d="M223.51,16.47V16.4c0-5.3,3.77-9.66,9.17-9.66,6.2,0,9,4.81,9,10.07,0,.42,0,.9-.07,1.38H228.73a4.3,4.3,0,0,0,4.53,3.63,6.08,6.08,0,0,0,4.5-1.9l3,2.67a9.8,9.8,0,0,1-17.27-6.13Zm13.08-1.56c-.31-2.35-1.7-3.95-3.91-3.95s-3.6,1.56-4,3.95Z"/><path class="acel-logo-11" d="M197.13,11.59V7.09h-4.36V2.35H187.5V7.41l2.2,2.2-2.2,2.2v8.57c0,4.29,2.18,5.57,5.4,5.57a7.76,7.76,0,0,0,4.15-1.07V20.66a5.35,5.35,0,0,1-2.6.66c-1.18,0-1.7-.59-1.7-1.8V11.59Z"/><path class="acel-logo-11" d="M168.94,16.47V16.4a9.53,9.53,0,0,1,9.73-9.66,9.12,9.12,0,0,1,7.41,3.12l-3.22,3.46a5.42,5.42,0,0,0-4.22-2c-2.63,0-4.5,2.32-4.5,5.05v.07c0,2.84,1.83,5.12,4.71,5.12a5.88,5.88,0,0,0,4.26-2l3.08,3.12a9.34,9.34,0,0,1-7.58,3.39A9.47,9.47,0,0,1,168.94,16.47Z"/></g></svg>