<svg id="Layer_1" data-name="Layer 1" xmlns="http://www.w3.org/2000/svg" viewBox="0 0 279.51 321"><defs><style>.cls-1{fill:none;stroke:#1c9ad7;stroke-miterlimit:10;stroke-width:15.84px;}.cls-2{fill:#1c9ad7;}</style></defs><title>arrow</title><path class="cls-1" d="M148,109.85" transform="translate(-8 -12)"/><path class="cls-2" d="M8,333H29.24c1.27,0,2.55,0,3.82,0,45.72,0,97.09-21.54,137.42-61.54,40.91-40.58,48.44-87.27,55.92-132a1.93,1.93,0,0,1,2.53-1.62l46.92,17.33a8,8,0,0,0,10.46-11.32L212.33,13a1.9,1.9,0,0,0-3.25-.09l-82.8,129c-4.85,6.81,2.66,15.57,10.13,11.82l43.47-17.34a28.14,28.14,0,0,0,17.71-26.76,1.89,1.89,0,0,0-2.7-1.7l-34.61,16.37a1.9,1.9,0,0,1-2.36-2.82l49.71-69.82a1.89,1.89,0,0,1,3.16.12l43,71.33a1.89,1.89,0,0,1-2.35,2.72l-42.82-18.07a1.89,1.89,0,0,0-2.63,1.69l-.28,10.47c0,128.41-96.54,191.6-172.69,191.6l-1.78,0H29.44A21.44,21.44,0,0,0,8,333Z" transform="translate(-8 -12)"/></svg>