<svg id="Layer_1" data-name="Layer 1" xmlns="http://www.w3.org/2000/svg" viewBox="0 0 60 44.3"><defs><style>.cls-1{fill:#fff;}</style></defs><title>arrow</title><path class="cls-1" d="M4,26.15H46.34L35,37.47a4,4,0,0,0,5.66,5.66L58.83,25h0a4.07,4.07,0,0,0,.5-.61c.06-.09.1-.19.15-.28a4.1,4.1,0,0,0,.22-.41c0-.12.07-.24.11-.36a3.9,3.9,0,0,0,.12-.39,4,4,0,0,0,.06-.62c0-.06,0-.11,0-.16S60,22,60,22a3.89,3.89,0,0,0-.06-.6A3.83,3.83,0,0,0,59.8,21c0-.11-.06-.23-.1-.33a3.81,3.81,0,0,0-.23-.44c0-.08-.08-.17-.13-.25a4,4,0,0,0-.51-.62L40.68,1.17A4,4,0,0,0,35,6.83L46.34,18.15H4a4,4,0,0,0,0,8Z"/></svg>