<svg id="Layer_1" data-name="Layer 1" xmlns="http://www.w3.org/2000/svg" viewBox="0 0 350.89 344"><defs><style>.cohorts-1{fill:#084473;}.cohorts-2{fill:#75caf3;}.cohorts-3{fill:#1c9bd8;}.cohorts-4{fill:#0768b1;}.cohorts-5{fill:#931f7f;}.cohorts-6{fill:#984da7;}.cohorts-7{fill:#fff;}</style></defs><title>stats</title><circle class="cohorts-1" cx="175.94" cy="171.79" r="164.93"/><path class="cohorts-2" d="M206.57,65.88a63.36,63.36,0,0,0-26.51-7.53c-36.33-2.12-66.62,26-66.72,60.88a60.62,60.62,0,0,0,20.07,45,63.49,63.49,0,0,0,42.43,16.37h.64c2.78,0,13.84-.32,23.31-5.59a11.52,11.52,0,0,1,1.38-.71c-4.3-5.61-9.71-9.48-16.75-8.06a42,42,0,0,1-8.32.81,49.58,49.58,0,0,1-33.2-12.74,47.2,47.2,0,0,1-15.63-35c.06-19.49,12.2-36.25,29.5-43.57C170.57,69.85,187,66.38,206.57,65.88Z"/><path class="cohorts-3" d="M206.57,65.88c17.85,9.63,30.52,27.48,32.32,48.19a59.89,59.89,0,0,1-15.6,45.9,1.61,1.61,0,0,0-.42,1l-14.38,15.2.6-20.78a1.66,1.66,0,0,1,.5-1.12l1.45-1.43a46.67,46.67,0,0,0,14.13-34.7c-.63-24.64-21.17-45.12-46.48-46.34a50.06,50.06,0,0,0-21.92,3.86C169.89,70.28,185.53,66.41,206.57,65.88Z"/><path class="cohorts-4" d="M208.49,176.21,208,194.37a1.69,1.69,0,0,0,1.43,1.69l33.27,10.54c15.9,4.88,19.16,15.27,19.15,21.52L263.75,263l10.79,11.6a4.31,4.31,0,0,0,3.46-4.37L275.73,228c-.05-20.39-21.36-32-29.4-34.46l-22.68-8.92a1.66,1.66,0,0,1-1.42-1.68l.64-21.92Z"/><path class="cohorts-5" d="M263.75,263a442.39,442.39,0,0,1-177.67-.47l-13.46-12.3-.83,19.45a4.33,4.33,0,0,0,3.44,4.4l2.08.45a459.76,459.76,0,0,0,97.55,10.8,459.72,459.72,0,0,0,97.6-10.28l2.08-.45"/><path class="cohorts-6" d="M197.65,196.26a57.64,57.64,0,0,1-21.58,3.86h0c-20.68-.07-33.5-9.34-36.47-13.82l-2.49-3.85L104.79,193l-.66.14c-19.1,5-29.67,20.54-29.79,34.37l-1.72,22.78,13.46,12.3L88.26,228v-.3c0-9.15,10.34-19.07,19.14-21.4l23.39-9c8,8.4,24.22,16.3,45.18,16.37H176a77.35,77.35,0,0,0,12.12-.88A12.05,12.05,0,0,0,197.65,196.26Z"/><path class="cohorts-7" d="M173.68,192.52v12.56H121.36v-10l26.71-24.26a27.19,27.19,0,0,0,5.73-6.7,11.84,11.84,0,0,0,1.49-5.57,7.24,7.24,0,0,0-2.82-6.13c-1.88-1.43-4.64-2.14-8.26-2.14A19.62,19.62,0,0,0,136,152a15.53,15.53,0,0,0-6.13,5l-11.67-7.23a27.15,27.15,0,0,1,11.17-9.09,38.73,38.73,0,0,1,16.32-3.28,34.62,34.62,0,0,1,13.5,2.43,20.67,20.67,0,0,1,9,6.85A17.19,17.19,0,0,1,171.41,157,22.5,22.5,0,0,1,169,167.22q-2.39,4.75-9.2,10.84l-15.93,14.46Z"/><path class="cohorts-7" d="M226.6,172.12a17.56,17.56,0,0,1,4.85,12.6,19.31,19.31,0,0,1-3.17,10.7,21.76,21.76,0,0,1-9.64,7.85q-6.48,3-15.88,2.95a56.74,56.74,0,0,1-14.39-1.85,38,38,0,0,1-12-5.28l6.24-11.8a30.45,30.45,0,0,0,9.14,4.42,36.5,36.5,0,0,0,10.64,1.57q6,0,9.49-2.23a7.11,7.11,0,0,0,3.46-6.33q0-8.17-12.95-8.18h-7.32V166.37l14.24-15.51H179.82V138.49h48.46v10L212.65,165.6Q221.76,167,226.6,172.12Z"/></svg>