<svg id="cohorts" xmlns="http://www.w3.org/2000/svg" viewBox="0 0 153.84 155.99"><defs><style>.cohorts-1{fill:#084474;}</style></defs><title>cohorts</title><path class="cohorts-1" d="M77.72,133.24c-16.15,0-34.18-1.88-50.54-7.92l-3-1.09,0-3.16c.18-12.52,1.54-28.22,7-31.94,2.46-1.67,9.81-4.64,14-6.24a8.64,8.64,0,0,1,11.35,5.64h0c-7.27,2.14-17,5.79-20.17,7.87C35,98.47,33.65,108,33.28,118c33.77,11.18,75.37,4.42,87.39,2.07.19-17.86-2.28-23.36-4.43-24.82-5.38-3.45-12.2-6.13-21.38-8.36L91.42,86l.17-17,1-1.23A22.13,22.13,0,0,0,97.8,53.59a21.52,21.52,0,1,0-21.52,21.9h0a8,8,0,0,1,7.54,6.31L84.24,84a68,68,0,0,1-8,.47,30.84,30.84,0,1,1,30.46-30.84,31.11,31.11,0,0,1-6.24,18.7l-.07,6.79c8.49,2.31,15.14,5.11,20.73,8.7,7.89,5.34,8.68,20.17,8.42,34,0,.79,0,1.44,0,1.94v3.54l-3.44.81A231.26,231.26,0,0,1,77.72,133.24Z"/></svg>