<svg id="demo" xmlns="http://www.w3.org/2000/svg" viewBox="0 0 612.01 464.72"><defs><style>.demo-1{fill:#1c9ad7;}</style></defs><title>demo</title><path class="demo-1" d="M337.41,99.14V78.22a4.86,4.86,0,0,0-4.86-4.86h-29a4.86,4.86,0,0,0-4.86,4.86V99.14H172.87V288.4c-13.79,6.25-21.29,15.92-21.36,28l-2.72,58a4.79,4.79,0,0,0,3.9,4.83l2.35.5a530.92,530.92,0,0,0,110.14,11.61,530.88,530.88,0,0,0,110.14-11.61l2.35-.5a4.79,4.79,0,0,0,3.9-4.83l-2.72-58c-.13-22.46-24.2-29.49-33.28-32.13l-25.61-4a1.86,1.86,0,0,1-1.61-1.85l.65-24.16a1.73,1.73,0,0,1,.47-1.13,65,65,0,0,0,17.48-50.63c-3-33-31.72-59.33-66.57-61.22-41-2.22-75.13,28.81-75.13,67.27A66.06,66.06,0,0,0,218,258,72.7,72.7,0,0,0,266,275.91h.73a63.13,63.13,0,0,0,8.75-.68v16.52C268.1,294,253,297,228.75,285.81a14.45,14.45,0,0,0-18.44,5.58c20.88,12.63,36.13,16.07,49.53,16.07,15.43,0,24.79-4.57,25.5-4.93l3.74-1.89v-40.3a2.69,2.69,0,0,0-3.29-2.62l-10.33,2.38a48,48,0,0,1-9.22.89A56.75,56.75,0,0,1,228.71,247,51.43,51.43,0,0,1,211,208.53c0-29.75,26.23-53.8,57.89-52.4,28.58,1.26,51.83,23.77,52.61,50.92a50.79,50.79,0,0,1-15.84,38.27L304,246.9a1.81,1.81,0,0,0-.55,1.25L302.28,291a1.86,1.86,0,0,0,1.62,1.85l37.57,5.77c18,5.33,21.66,11,21.66,17.9l2.33,49.94a511.61,511.61,0,0,1-200.57,0l2.33-49.61v-.33c0-7.45,7.58-13.31,15.44-16.82A6.33,6.33,0,0,0,186.5,294c0-4.12,0-9,0-10.19v-171H312.31V91.84A4.86,4.86,0,0,1,317.17,87h1.75a4.86,4.86,0,0,1,4.86,4.86v20.92H449.61V307.57H405.73a13.62,13.62,0,0,0-13.62,13.62h71.11V99.14Z"/></svg>