<svg id="Layer_1" data-name="Layer 1" xmlns="http://www.w3.org/2000/svg" viewBox="0 0 350.89 344"><defs><style>.investments-1{fill:#084473;}.investments-2{fill:#75caf3;}.investments-3{fill:#931f7f;}.investments-4{fill:#984da7;}.investments-5{fill:#1c9bd8;}.investments-6{fill:#0768b1;}.investments-7{fill:#fff;}</style></defs><title>stats</title><circle class="investments-1" cx="174.5" cy="171.79" r="164.93"/><path class="investments-2" d="M199.68,86.87H189.22c0-.37-17.64,10.73-57.67,9.83-32.26-.73-53-6-57.21-9.83,4.24-3.86,24.94-9.82,57.21-9.82A215.17,215.17,0,0,1,166.4,79.7a12.4,12.4,0,0,0,14-9c-12.53-3.45-30.34-5.43-48.87-5.43-7.1,0-69.4.6-69.4,21.6s62.3,21.61,69.4,21.61c5.15,0,39.27-.32,57.67-8.48v12.75a88,88,0,0,1-24.39,19.81c17.87-2.56,36.12-8,36.12-19.31V88.15A1.27,1.27,0,0,0,199.68,86.87Z"/><path class="investments-3" d="M73.88,209.74c0,.07,0-.38,0,0Z"/><path class="investments-3" d="M288.22,231.09H278.13c0-.38-18.62,9.9-57.68,9.82a205.9,205.9,0,0,1-38.12-3.29c-2.9-.53-7.05-1.59-9.47-2.27-12-3.32-16-9.07-21.8-14v9.71c0,3.53,2,6.21,4.66,9,3,3,12.27,6.22,15.55,7.14,18.86,5.27,44.75,5.51,49.18,5.51,5.15,0,39.27-.32,57.68-8.49v12c-2.91,3.82-24,10.32-57.68,10.32-33.11,0-58.71-6.27-62.33-10.11-2.41-5.9-4.68-11.66-5.11-13.34-5.17.42-17.45.62-21.46.62-33.69,0-54.76-6.5-57.67-10.32v-10.5c18.4,8.16,52.52,8.48,57.67,8.48,2.69,0,7.94-.12,7.94-.12l4.89-.11a1,1,0,0,0,.92-1l-.52-33.83-11.37,23.22h-1.86c-34.35,0-55.44-6-57.67-9.82H63.78a1.63,1.63,0,0,0-1.63,1.64v22.48c0,21,62.3,21.61,69.4,21.61,4.33,0,14.63-.73,15.2-1.05.11-.07,1,6.18,2.17,7.85,2.74,4,8.43,7.05,15.48,9.31,20.14,6.46,51.31,6.73,56,6.73,7.11,0,69.4-.61,69.4-21.61v-24A1.63,1.63,0,0,0,288.22,231.09Z"/><path class="investments-4" d="M267.77,192.06c-18.66-4.79-43-5-47.32-5-7.1,0-69.39.61-69.39,21.61v21a170.75,170.75,0,0,0,26.45,6.88c-5.95-1.55-13.11-3.73-14.76-6l0-21.38c2.91-3.82,24-10.32,57.67-10.32a219.69,219.69,0,0,1,30.86,2,10.66,10.66,0,0,0,1.26.08l-.08,0c8.14,1.14,23.28,5.93,25.18,7.65-4.08,3.71-23.37,9.37-53.53,9.8q-1.81,0-3.69,0c-14.78,0-30.8-2.06-42.85-5.49h0a11.21,11.21,0,0,0,8.59,14.09,190.22,190.22,0,0,0,34.26,3.18c2.85,0,11.84-.26,15.62-.53,20.69-1.3,53.78-5.77,53.78-21.08C289.85,200.33,280,195.21,267.77,192.06Z"/><path class="investments-5" d="M189.22,112.75c-2.91,3.82-24,10.27-57.67,10.32-44,.06-57.67-10.2-57.67-9.82H63.42a1.27,1.27,0,0,0-1.27,1.27v22.85c0,21,62.3,21.61,69.4,21.61,5.15,0,39.27-.32,57.67-8.49V161c-.3.28-.64.58-1,.87-4.27,3.12-19.05,7.06-41.84,8.73l-34.84,11.66c9.75.78,17.7.84,20,.84s10.23-.06,20-.84c0,0,.09,0,.23,0,20.65-1.66,49.18-6.53,49.18-20.75V138.64a1.27,1.27,0,0,0-1.27-1.27H189.22c0-.38-15.69,9.33-57.67,9.82-33.69.39-54.76-6.5-57.67-10.32v-10.5c18.4,8.17,52.52,8.48,57.67,8.48a255.28,255.28,0,0,0,33.28-2.29C173.4,129,183,120.28,189.22,112.75Z"/><path class="investments-6" d="M133.41,219.55l11.37-23.22a1.28,1.28,0,0,0-1.32-1.25l-4.69.17c-.05,0-5.07.19-7.22.19-33.68,0-54.76-6.5-57.67-10.32v-10.5c10.26,4.55,25.4,6.66,37.69,7.64,13.24,0,27.28-4.55,34.84-11.66-4.63.34-9.59.59-14.86.72-38.13.92-57.67-10.21-57.67-9.83H63.42a1.27,1.27,0,0,0-1.27,1.28v22.85c0,12.43,21.82,17.71,41.1,20l.37,0a263.24,263.24,0,0,0,27.93,1.61l1.67,0,.19,12.34"/><path class="investments-7" d="M64.89,192.28H96.83v12.1H40.39v-12.1h9.32v-16H40.39v-9h9.32V164.8q0-12.48,8-19.6T80,138.07c7.44,0,13.69,1.43,18.71,4.29l-4.56,11.92q-5.59-3.36-14-3.36c-5,0-8.75,1.16-11.36,3.45s-3.91,5.68-3.91,10.15v2.7H87.24v9H64.89Z"/><path class="investments-7" d="M146.1,172.11a17.6,17.6,0,0,1,4.56,12.34,19.45,19.45,0,0,1-3,10.48,20.65,20.65,0,0,1-9.08,7.68,34.69,34.69,0,0,1-14.95,2.89,51.32,51.32,0,0,1-13.55-1.81,35.13,35.13,0,0,1-11.31-5.17L104.66,187a28.54,28.54,0,0,0,8.61,4.33,33.35,33.35,0,0,0,10,1.53c3.79,0,6.77-.72,8.94-2.18a7,7,0,0,0,3.26-6.2q0-8-12.2-8h-6.89v-10L129.8,151.3H102.05V139.19h45.63V149L133,165.73Q141.54,167.13,146.1,172.11Z"/><path class="investments-7" d="M171.15,201.5a26.9,26.9,0,0,1-9.92-11.6,42.09,42.09,0,0,1-3.58-18.11q0-10.53,3.58-18.12a26.88,26.88,0,0,1,9.92-11.59,28,28,0,0,1,28.87,0,26.88,26.88,0,0,1,9.92,11.59,42.1,42.1,0,0,1,3.59,18.12,42.09,42.09,0,0,1-3.59,18.11A26.9,26.9,0,0,1,200,201.5a28,28,0,0,1-28.87,0ZM195,187.62q3.39-5.12,3.4-15.83T195,156a11,11,0,0,0-18.63,0q-3.4,5.13-3.4,15.84t3.4,15.83a11,11,0,0,0,18.63,0Z"/><path class="investments-7" d="M303.07,159.07q5.55,5.55,5.54,16.63v28.68H294.09V177.93c0-4-.83-6.94-2.47-8.89a8.67,8.67,0,0,0-7-2.94,10.39,10.39,0,0,0-8.11,3.31q-3,3.32-3,9.83v25.14H259V177.93q0-11.82-9.49-11.83a10.28,10.28,0,0,0-8,3.31q-3,3.32-3,9.83v25.14H224v-50.1h13.87v5.77a18.45,18.45,0,0,1,6.85-4.84,23,23,0,0,1,8.89-1.68,21.54,21.54,0,0,1,9.6,2.1,17,17,0,0,1,6.89,6.1,20.47,20.47,0,0,1,7.77-6,24.55,24.55,0,0,1,10.3-2.15Q297.52,153.53,303.07,159.07Z"/></svg>