<svg id="investors" xmlns="http://www.w3.org/2000/svg" viewBox="0 0 612.01 464.72"><defs><style>.investors-1{fill:#1c9ad7;}</style></defs><title>investors</title><path class="investors-1" d="M280.54,329.2c-6.2-3.91-9.63-7.68-9.63-13.85V284c0-29.39,87.64-30.24,97.63-30.24s97.63.85,97.63,30.24-87.64,30.24-97.63,30.24a268.44,268.44,0,0,1-48.2-4.46A15.68,15.68,0,0,1,308.26,290h0c16.95,4.81,39.49,7.68,60.28,7.68,45.4,0,74.52-8.35,80.48-13.75-6-5.4-35.09-13.75-80.48-13.75-47.39,0-77,9.09-81.13,14.44v30c4.1,5.34,33.74,14.35,81.13,14.44,54.94.11,81.13-14.28,81.13-13.75h14.2a2.29,2.29,0,0,1,2.29,2.29v33.55c0,29.39-87.64,30.24-97.63,30.24-9,0-85.77-.69-100.64-22.44-1.6-2.35-2.89-11.09-3.05-11-.8.45-15.29,1.48-21.38,1.48-10,0-97.63-.85-97.63-30.24V287.76a2.29,2.29,0,0,1,2.29-2.29h14.2a2.21,2.21,0,0,0-.21-1c3.15,5.29,33,14.75,81.35,14.75l2.61,0-.27-17.27-2.35,0c-10,0-97.63-.85-97.63-30.24v-32a1.78,1.78,0,0,1,1.78-1.78h14.71c0-.53,27.49,15,81.13,13.75,47.38-1.14,77-9.09,81.13-14.44v-14.7c-25.89,11.42-73.89,11.87-81.13,11.87-10,0-97.63-.85-97.63-30.24v-32a1.78,1.78,0,0,1,1.78-1.78h14.71c0-.53,19.24,13.84,81.13,13.75,47.39-.07,77-9.09,81.13-14.44V131.9c-25.89,11.42-73.89,11.87-81.13,11.87-10,0-97.63-.85-97.63-30.24s87.64-30.24,97.63-30.24c26.07,0,51.12,2.77,68.75,7.61h0a17.44,17.44,0,0,1-19.72,12.59,304.12,304.12,0,0,0-49-3.71c-45.4,0-74.52,8.35-80.48,13.75,6,5.4,35.1,12.73,80.48,13.75,56.31,1.26,81.13-14.28,81.13-13.75h14.71a1.78,1.78,0,0,1,1.78,1.78v35.12c0,29.39-87.64,30.24-97.63,30.24-7.24,0-55.24-.45-81.13-11.87v14.7c4.1,5.34,33.75,15,81.13,14.44,59.06-.68,81.13-14.28,81.13-13.75h14.71A1.78,1.78,0,0,1,341.1,186v32c0,29.39-87.64,30.24-97.63,30.24-7.24,0-55.24-.45-81.13-11.87V251c4.1,5.34,33.75,14.44,81.13,14.44,3,0,10.09-.26,10.16-.26l6.6-.24a1.78,1.78,0,0,1,1.85,1.75l.75,48.65-8.19.18s-7.39.17-11.17.17c-7.24,0-55.24-.45-81.13-11.87v14.7c4.1,5.34,33.74,14.44,81.13,14.44,5.64,0,22.91-.28,30.18-.86,1.39,5.33,6.88,18.39,6.88,18.39,4.1,5.34,40.62,14.44,88,14.44s77-9.09,81.13-14.44V333.72c-25.89,11.42-73.89,11.87-81.13,11.87s-55.23-.45-81.12-11.87Z"/></svg>