<svg id="Layer_1" data-name="Layer 1" xmlns="http://www.w3.org/2000/svg" viewBox="0 0 350.89 344"><defs><style>.jobs-1{fill:#084473;}.jobs-2{fill:#75c8f1;}.jobs-3{fill:#1a99d6;}.jobs-4{fill:#931f7f;}.jobs-5{fill:#0a68b0;}.jobs-6{fill:#984da7;}.jobs-7{fill:#fff;}</style></defs><title>stats</title><circle class="jobs-1" cx="175.01" cy="171.79" r="164.93"/><path class="jobs-2" d="M214.53,109.48V87.41c0-10.33-6.6-18.42-15-18.42H143.39c-8.42,0-15,8.09-15,18.42v9.74h7.45a9.53,9.53,0,0,0,9.31-9.74h0a5.27,5.27,0,0,1,.07-.87h52.49a4.3,4.3,0,0,1,.08.87V127Z"/><path class="jobs-3" d="M269.81,256.17V127.89A.85.85,0,0,0,269,127H197.77l16.76-17.54H269c9.11,0,16.61,7.26,17.5,16.55.06.61.09,97.3.09,97.93"/><path class="jobs-4" d="M63.47,257l.45-129.14L81.51,127a.85.85,0,0,0-.83.87V256.17a.85.85,0,0,0,.83.86"/><path class="jobs-5" d="M63.47,237v21.63c0,10.17,8.34,15.93,18.05,15.93H269c9.71,0,17.59-8.24,17.59-18.41V224l-16.76,32.21a.85.85,0,0,1-.83.86H81.51Z"/><path class="jobs-6" d="M81.51,127H184.82c0-9.69-7.5-17.54-16.76-17.54H81.51c-9.71,0-17.59,8.24-17.59,18.41l-.46,14.68Z"/><path class="jobs-7" d="M143.23,190.82H132.54v13.79H117.72V190.82H82.37V180.6L113.32,139h15.94l-28.7,39.47h17.63V166.16h14.35v12.28h10.69Z"/><path class="jobs-7" d="M161.32,201.7a27,27,0,0,1-10-11.68q-3.61-7.64-3.61-18.23t3.61-18.24a26.92,26.92,0,0,1,10-11.67,28.17,28.17,0,0,1,29.07,0,27,27,0,0,1,10,11.67A42.45,42.45,0,0,1,204,171.79,42.43,42.43,0,0,1,200.38,190a27.09,27.09,0,0,1-10,11.68,28.23,28.23,0,0,1-29.07,0Zm24-14q3.42-5.16,3.42-15.94t-3.42-15.94a11.1,11.1,0,0,0-18.75,0q-3.42,5.15-3.42,15.94t3.42,15.94a11.11,11.11,0,0,0,18.75,0Z"/><path class="jobs-7" d="M225,201.7A27.09,27.09,0,0,1,215,190a42.43,42.43,0,0,1-3.61-18.23A42.45,42.45,0,0,1,215,153.55a27,27,0,0,1,10-11.67,28.17,28.17,0,0,1,29.07,0,26.92,26.92,0,0,1,10,11.67q3.61,7.63,3.61,18.24T264,190a27,27,0,0,1-10,11.68,28.23,28.23,0,0,1-29.07,0Zm24-14q3.42-5.16,3.42-15.94T249,155.85a11.11,11.11,0,0,0-18.76,0q-3.42,5.15-3.42,15.94t3.42,15.94a11.12,11.12,0,0,0,18.76,0Z"/></svg>