<svg id="jobs" xmlns="http://www.w3.org/2000/svg" viewBox="0 0 153.84 155.99"><defs><style>.jobs-1{fill:#931e80;}</style></defs><title>jobs</title><path class="jobs-1" d="M127.1,131.57H26.74a9.41,9.41,0,0,1-9.41-9.41V54.53a9.41,9.41,0,0,1,9.41-9.41H73.08a9,9,0,0,1,9,9H26.74a.44.44,0,0,0-.44.44v67.63a.44.44,0,0,0,.44.44H127.09a.44.44,0,0,0,.44-.44V54.53a.44.44,0,0,0-.44-.44H89V33.83a2.23,2.23,0,0,0,0-.44H60.84a2.23,2.23,0,0,0,0,.44h0a5,5,0,0,1-5,5h-4v-5c0-5.28,3.53-9.41,8-9.41h30c4.51,0,8,4.13,8,9.41V45.12h29.15a9.41,9.41,0,0,1,9.41,9.41v67.63A9.41,9.41,0,0,1,127.1,131.57Z"/></svg>