<svg id="mentorship" xmlns="http://www.w3.org/2000/svg" viewBox="0 0 612.01 464.72"><defs><style>.mentorship-1,.mentorship-2{fill:#1c9ad7;}.mentorship-2{stroke:#1c9ad7;stroke-miterlimit:10;stroke-width:2.22px;}</style></defs><title>mentorship</title><path class="mentorship-1" d="M473.47,251.92l-27.84-4.35a2,2,0,0,1-1.75-2l.71-26.26a1.89,1.89,0,0,1,.52-1.24,70.62,70.62,0,0,0,19-55c-3.29-35.89-34.48-64.5-72.37-66.55C347.13,94.06,310,127.8,310,169.61a71.82,71.82,0,0,0,24.78,53.78,79,79,0,0,0,52.11,19.47h.79c3.4,0,17-.42,28.58-6.77a15.22,15.22,0,0,1,1.69-.86c-5.3-6.7-11.94-11.31-20.58-9.6a52,52,0,0,1-10.2,1,61.69,61.69,0,0,1-40.79-15.16,55.91,55.91,0,0,1-19.29-41.87c0-32.34,28.52-58.48,62.94-57,31.07,1.37,56.35,25.84,57.2,55.36A55.22,55.22,0,0,1,430,209.6l-1.79,1.72a1.94,1.94,0,0,0-.6,1.34l-1.26,46.64a2,2,0,0,0,1.76,2L469,267.59c19.53,5.79,23.55,12,23.55,19.45l2.54,54.29a556.17,556.17,0,0,1-218,0l2.53-53.93V287c0-11,12.65-16.61,23.43-19.44l28.7-4.56c9.85,10,29.77,19.45,55.49,19.46h.07a98.54,98.54,0,0,0,14.87-1.1c9.69-1.48,15.35-11.21,11.6-19.82h0a72.1,72.1,0,0,1-26.47,4.69h-.06c-25.38,0-41.14-11.08-44.8-16.44l-3.05-4.47-39.6,6.29-.82.17c-23.42,6-36.36,18.44-36.46,35l-3,63.09a5.2,5.2,0,0,0,4.24,5.25l2.55.54a577.16,577.16,0,0,0,119.74,12.62,577.12,577.12,0,0,0,119.74-12.62l2.55-.54a5.2,5.2,0,0,0,4.24-5.25l-3-63.09C509.51,262.43,483.34,254.8,473.47,251.92Z"/><path class="mentorship-2" d="M250.77,227.07l36.74,14.34a1.17,1.17,0,0,1,.06,2.24L275.25,248c-11.75,4.49-23.34,16.27-23.63,27.66l-4,56.62-7.84.72c-10.06.94-20.41,1.9-30.71,1.9q-2.94,0-5.88-.11h-.07a454.05,454.05,0,0,1-93.74-9.91l-2-.42a9.86,9.86,0,0,1-8-10l2.29-48.86c.09-15.21,12-27.11,32.72-32.43l.93-.2,24.55-4.86V203.5a56.46,56.46,0,0,1-12.13-34.77c0-33.15,29.35-59.92,64.68-58.14,30.93,1.56,56.27,25.61,57.92,55C272.25,199.1,244,227,209.12,227a64,64,0,0,1-29.74-7.29h0a14,14,0,0,1,15.82-6.15,51.84,51.84,0,0,0,13.91,1.9c29,0,52.17-23.9,48.87-52-2.52-21.46-20.85-38.77-43.47-41.07-30.92-3.14-56.93,21.1-54.41,50.31a47.22,47.22,0,0,0,11.41,26.2l.55.66v38.09l-34.61,6.85c-10.76,2.79-23.52,8.78-23.6,21.54l-2.23,47.59.44.09a442.18,442.18,0,0,0,91.41,9.63c10.74.42,21.76-.5,32.49-1.49l3.49-46.5c.28-10.84,6.21-26.16,18.22-33.75l-5.49-1.8"/><path class="mentorship-2" d="M252.2,239.75c-20.14,11.1-40.56,14-60.89,8.55a10.54,10.54,0,0,1-7-14.68h0c21.2,9.07,42.73,7.35,64-5.11l2.46-1.44"/></svg>