<svg id="networking" xmlns="http://www.w3.org/2000/svg" viewBox="0 0 612.01 464.72"><defs><style>.networking-1{fill:#1c9ad7;}</style></defs><title>networking</title><path class="networking-1" d="M195.79,397.05c-29.77,0-54-23.39-54-52.13s24.22-52.14,54-52.14c22.14,0,36.06,12,45.81,24,28.81-12.27,69.64-29.82,82.07-35.58q0-1.17,0-2.35a68.68,68.68,0,0,1,7.3-30.75l-50.15-74.37a59.34,59.34,0,0,1-25.65,5.79c-31.94,0-57.92-25.08-57.92-55.92s26-55.92,57.92-55.92,57.92,25.08,57.92,55.92a54.38,54.38,0,0,1-5.19,23.12l48.94,73a75.44,75.44,0,0,1,40.11-11.53c40.41,0,73.29,31.71,73.29,70.68s-32.88,70.67-73.29,70.67c-24.86,0-47.77-12.06-61.26-31.86l-77.75,34.68a14.11,14.11,0,0,1-18.63-7.14h0L341.45,299.6l3.14,5.66c10.3,18.58,30.35,30.12,52.33,30.12,32.63,0,59.17-25.37,59.17-56.56s-26.55-56.56-59.17-56.56a61,61,0,0,0-37.58,12.88l-6,4.71-62-92.4,2.19-3.8A40.32,40.32,0,0,0,299,123.58c0-23.05-19.65-41.81-43.81-41.81s-43.81,18.75-43.81,41.81,19.65,41.8,43.81,41.8a45.1,45.1,0,0,0,24.12-6.93l5.79-3.66,62.45,92.62-2.24,3.83a54.63,54.63,0,0,0-7.52,27.58,55.21,55.21,0,0,0,.3,5.75c.55,5.19-3.39,7-7.94,9.15-2.53,1.18-6.15,2.81-10.49,4.73-8.6,3.81-20.09,8.8-31.58,13.75-22.95,9.89-45.9,19.65-45.9,19.65L237,334l-3.31-4.44c-12-16.12-23-22.69-37.92-22.69-22,0-39.87,17.06-39.87,38s17.89,38,39.87,38a40.69,40.69,0,0,0,31.44-14.72,16.8,16.8,0,0,1,19.08-5.06h0C238.48,383.43,218.18,397.05,195.79,397.05Z"/></svg>