<svg id="officespace" xmlns="http://www.w3.org/2000/svg" viewBox="0 0 612.01 464.72"><defs><style>.officespace-1{fill:#1c9ad7;}</style></defs><title>officespace</title><path class="officespace-1" d="M379.16,315.54V293.43h-.06V286.8a2.35,2.35,0,0,0-2.35-2.35H338.48V272.56h85.76a5.44,5.44,0,0,0,5.44-5.44V77.3a5.44,5.44,0,0,0-5.44-5.44h-237a5.44,5.44,0,0,0-5.44,5.44V219a14.25,14.25,0,0,0,14.17-14.25V86H415.5V258.39h-89.3v39.15h40.33v30.62H495.78v51.38H116.23V328.16H248.16V297.54h40.23V258.39H195.92V240.1h197a14.24,14.24,0,0,0,14.32-14.17H181.75v41.18a5.44,5.44,0,0,0,5.44,5.44h89.14v12.73H237.9a2.35,2.35,0,0,0-2.35,2.35v5.79h0v22.11H103.61v77.32L508.4,392V315.54Z"/><path class="officespace-1" d="M375.28,181.79a4.35,4.35,0,0,1-3.23-1.43l-14.47-16.1-15.72-15.72L320.43,170,301.89,156.5,278,179.63h-41.9l0-4.13V123.33h0a8.23,8.23,0,0,1,8.23,8.23V171.4h30.37l26.51-25.62,18.44,13.42,22.28-22.28,21.76,21.77,7.61,8.47-.65-51.41H248.38a8.23,8.23,0,0,1-8.23-8.23H378.74l0,4.13.83,65.77a4.36,4.36,0,0,1-2.76,4.09A4.3,4.3,0,0,1,375.28,181.79Z"/><path class="officespace-1" d="M373.81,209H240.54a5.35,5.35,0,0,1-5.35-5.35v-9.3a5.35,5.35,0,0,1,5.35-5.35H360.36a8.23,8.23,0,0,1-8.23,8.23H243.42v3.54H365.58a8.23,8.23,0,0,1,8.23,8.23Z"/><path class="officespace-1" d="M390.6,158.57h0a8.23,8.23,0,0,1-1.91-11.48l1.91-2.68-1.91-2.68a8.23,8.23,0,0,1,1.91-11.48h0l10.12,14.16Z"/><path class="officespace-1" d="M222.51,158.57,212.4,144.41l10.12-14.16h0a8.23,8.23,0,0,1,1.91,11.48l-1.91,2.68,1.91,2.68a8.23,8.23,0,0,1-1.91,11.48Z"/></svg>