<svg id="oneonone" xmlns="http://www.w3.org/2000/svg" viewBox="0 0 612.01 464.72"><defs><style>.oneonone-1{fill:#1c9ad7;}</style></defs><title>oneonone</title><path class="oneonone-1" d="M473.82,392.86h-.49c-34.59-1.6-62.36-9.09-84.81-22.89a173,173,0,0,0-18.66-1.51c-75,0-136-41.16-136-91.76,0-46.83,52.78-86.22,121.13-91.22l1.94-4.69a45.17,45.17,0,0,0,3.73-17c0-41.81-53.56-75.73-119.4-75.73s-119.4,33.92-119.4,75.61c0,20.64,13.79,40.7,37.83,55l4.73,2.82-.87,5.33a94.87,94.87,0,0,1-13.07,35.62,210.36,210.36,0,0,0,53.74-14.72,17.8,17.8,0,0,1,22.25,7.12h0c-24.05,13.6-59.7,23.63-88.7,25a10.27,10.27,0,0,1-10.18-6.54c-1.42-3.63-.26-7.69,2.33-10.65,7.95-9.06,13.41-20.2,16.27-33.2-26.08-17.16-40.92-40.88-40.92-65.77,0-50.6,61-91.76,136-91.76s136,41.16,136,91.76a60.94,60.94,0,0,1-4.93,23.2L366.44,201l-5.31.24c-62.06,2.87-110.67,36-110.67,75.41,0,41.69,53.56,75.61,119.4,75.61,9.11,0,22.23,1.84,22.78,1.91l1.81.26,1.53,1c17.34,11,38.63,17.7,64.81,20.32a94.76,94.76,0,0,1-13.23-35.89l-.87-5.33,4.73-2.82c24-14.33,37.83-34.39,37.83-55,0-33-35.08-62.37-83.83-72.15a17,17,0,0,1-13.9-18.46h0c66.25,7.09,114.33,45.2,114.33,90.61,0,24.89-14.84,48.61-40.92,65.77,2.87,13,8.36,24.21,16.34,33.28A10.46,10.46,0,0,1,484,384.5,10.32,10.32,0,0,1,473.82,392.86Zm-4.69-6.09h0Z"/><path class="oneonone-1" d="M321.63,293a16.14,16.14,0,0,1-16.34-16.38c.24-8.3,7.35-15.21,15.87-15.45A16.17,16.17,0,0,1,338,277a15.7,15.7,0,0,1-5.14,11.6,4.33,4.33,0,0,1-6.82-1.49h0a10.94,10.94,0,0,0,6.87-10.79,11.3,11.3,0,0,0-11.31-10.3,11.14,11.14,0,0,0-11.22,11,11,11,0,0,0,7.34,10.29,5.69,5.69,0,0,1,3.93,5.26Z"/><path class="oneonone-1" d="M371.41,293a16.14,16.14,0,0,1-16.34-16.38c.24-8.3,7.35-15.21,15.87-15.45A16.17,16.17,0,0,1,387.76,277a15.7,15.7,0,0,1-5.14,11.6,4.33,4.33,0,0,1-6.82-1.49h0a10.94,10.94,0,0,0,6.87-10.79,11.3,11.3,0,0,0-11.31-10.3,11.14,11.14,0,0,0-11.22,11,11,11,0,0,0,7.34,10.29,5.69,5.69,0,0,1,3.93,5.26Z"/><path class="oneonone-1" d="M421.19,293a16.14,16.14,0,0,1-16.34-16.38c.24-8.3,7.35-15.21,15.87-15.45A16.17,16.17,0,0,1,437.53,277a15.7,15.7,0,0,1-5.14,11.6,4.33,4.33,0,0,1-6.82-1.49h0a10.94,10.94,0,0,0,6.87-10.79,11.3,11.3,0,0,0-11.31-10.3,11.14,11.14,0,0,0-11.22,11,11,11,0,0,0,7.34,10.29,5.69,5.69,0,0,1,3.93,5.26Z"/></svg>