<svg id="opendata" xmlns="http://www.w3.org/2000/svg" viewBox="0 0 612.01 464.72"><defs><style>.opendata-1{fill:#1c9ad7;}</style></defs><title>opendata</title><path class="opendata-1" d="M356.13,237.8H257.72a1,1,0,0,1-1-1v-70a1,1,0,0,1,1-1H306a15.69,15.69,0,0,1,14.1,8.27,15.28,15.28,0,0,1-2.91,17.92l7,24.54a.45.45,0,0,1-.43.57H290.24a.45.45,0,0,1-.44-.56l6.07-24.5c-2.95-2.86-5.78-8.11-4.16-13.24h0c2.87,1.12,3.64.19,6.63,6a9.77,9.77,0,0,0,2.91,3.53l1.73,1.25-5.25,21.2H316l-6.07-21.15,1.61-1.16a9.18,9.18,0,0,0,3.64-5.12,9,9,0,0,0-8.67-11.25H263v59.42h87.84V172.06H339.63l-.06-3.1C339,137.58,322,126.4,306.35,126.4c-16.8,0-28.51,8.23-32.66,22.74h6.72c1.87-7.21,8.8-17.29,25.75-17.29h.2a20.2,20.2,0,0,1,15,6.31c10.56,11,10,32.52,9.95,33.44h0a6.78,6.78,0,0,1-6.51-6.27c-.54-6.58-2.3-16.93-8-22.8a13.92,13.92,0,0,0-10.46-4.37h-.18c-18.51,0-19.91,13.81-20,14.4a5.6,5.6,0,0,0,0,2.26c.2,2-19.94,1.9-20,0,.15-.78.49-3.1.49-3.1,3.68-19.81,18.54-31.64,39.74-31.64,22.65,0,37.9,17.81,39.42,45.66h10.36a1,1,0,0,1,1,1v70A1,1,0,0,1,356.13,237.8Z"/><path class="opendata-1" d="M458.38,72H153.63a7,7,0,0,0-7,7V254.23h0a18.32,18.32,0,0,0,18.21-18.32V90.18H447.16v221.6H332.36v50.33h51.41a15.07,15.07,0,0,1-15.07,15.07H246.59a15.07,15.07,0,0,1-15.07-15.07h52.22V311.77H164.85V281.42H418.13a18.31,18.31,0,0,0,18.41-18.21H146.64V323a7,7,0,0,0,7,7H268.23v16.36H218.77a3,3,0,0,0-3,3v13.35a30,30,0,0,0,30,30H366.11a34.25,34.25,0,0,0,34.25-34.25V348.3a3,3,0,0,0-3-3h-49.2V330H458.38a7,7,0,0,0,7-7V79A7,7,0,0,0,458.38,72Z"/></svg>