<svg id="partners" xmlns="http://www.w3.org/2000/svg" viewBox="0 0 612.01 464.72"><defs><style>.partners-1{fill:#1c9ad7;}</style></defs><title>partners</title><path class="partners-1" d="M501.41,184.23,414.16,92.16a10.25,10.25,0,0,0-7.26-3.2l-4.46.09-47.07,47.08-42.65,7.19h0a19.36,19.36,0,0,0,22.5,15.61l26.46-4.26,3.61-1.08,41.28-41.28,74.7,78.82-88.14,89.47-23.59-24.36a10.27,10.27,0,0,0-7.25-3.13l-4.22.11-49.72,50.2c-4.82,5.26-8.48,8.34-9.53,8.53a6.62,6.62,0,0,1-6-1.91L234,246.75l38.52-40.83,11.92,11.92a50.5,50.5,0,0,0,70.27.74,10.27,10.27,0,0,0,3.13-7.25l-.11-4.43-66.13-66.12-2.26-2.15-2.78-.61-41-4.79L205.94,93.61a10,10,0,0,0-7.31-3l-4.46.2L110.6,178.76a10.24,10.24,0,0,0,.15,14.25l52.6,52.6,15.71,27.19L269.3,363S279,375.76,306,375.76c20.06,0,28.14-7.4,37.58-16.85l44.29-45a19.36,19.36,0,0,0-27.38.21l-30.65,31.13c-6.48,6.49-14.72,12.67-23.84,11.75-9.13,1.35-16.46-1.72-23-6.81l-87.22-87.1-17-29.38-48.09-48.09L198.9,114l35.23,35.22,2.3,2.18,2.83.59,40.87,4.77L333.45,210a31.1,31.1,0,0,1-35.36-5.89L279.7,185.76a10.23,10.23,0,0,0-7.27-3.05l-4.42.15L216.65,237.2a26,26,0,0,0,6.22,25.9L279,323.52A26,26,0,0,0,302.26,331c8.52-1.54,13.44-7.91,19.17-15l40.41-39.81L372.2,287l21,21L501.29,198.37A10.14,10.14,0,0,0,501.41,184.23Z"/></svg>