<svg id="peks" xmlns="http://www.w3.org/2000/svg" viewBox="0 0 612.01 464.72"><defs><style>.perks-1{fill:#1c9ad7;}</style></defs><title>perks</title><path class="perks-1" d="M363.8,278.4H304c-23.49,0-42.61,19.55-42.61,43.57s19.12,43.57,42.61,43.57S346.56,346,346.56,322a44.19,44.19,0,0,0-6.5-23.15l-.2.12a17.93,17.93,0,0,0-8,18.31,30.4,30.4,0,0,1,.37,4.72c0,16.12-12.68,29.23-28.26,29.23S275.69,338.1,275.69,322s12.68-29.23,28.26-29.23h52.39a64.82,64.82,0,0,1,7.1,29,60.13,60.13,0,1,1-120.21-2.32c1.23-32.54,29-57.81,61.56-57.81h28l101.9-192.5H365.44l-86.08,155L200.21,82.81h38.26l43.64,82.25a13.67,13.67,0,0,0,18.31,6.19L247,69.15h-69.6l95.23,171.28a7.51,7.51,0,0,0,6.78,4.21,7.43,7.43,0,0,0,6.68-4L373.63,82.81h38.65L324.4,248H305.13c-40,0-74,31-75.55,70.95a73.79,73.79,0,1,0,147.53,2.84,78.22,78.22,0,0,0-12.79-42.49Z"/></svg>