<svg id="Layer_1" data-name="Layer 1" xmlns="http://www.w3.org/2000/svg" viewBox="0 0 350.89 344"><defs><style>.startups-1{fill:#084473;}.startups-2{fill:#1c9bd8;}.startups-3{fill:#75caf3;}.startups-4{fill:#984da7;}.startups-5{fill:#0768b1;}.startups-6{fill:#931f7f;}.startups-7{fill:#fff;}</style></defs><title>stats</title><circle class="startups-1" cx="174.05" cy="171.79" r="164.93"/><path class="startups-2" d="M164.84,157.48,159.63,155c-17.12-8.17-34.89,9.71-44.73,22.36a1.34,1.34,0,0,0,.92,2.14l-20.91,2A127.59,127.59,0,0,1,115,156c18.48-17.82,34.14-19.13,45.28-15.86l6.07-8a243.51,243.51,0,0,1,24.6-25.47C178.1,125.54,168.1,143.11,164.84,157.48Z"/><path class="startups-3" d="M115.82,179.5,141,182.3a1.41,1.41,0,0,1,.48.15L202.5,215a1.35,1.35,0,0,1,.56,1.82h0a12.81,12.81,0,0,1-17.32,5.28l-48.55-25.85a1.34,1.34,0,0,0-.48-.15l-45.13-5a1.34,1.34,0,0,1-1-2l4.35-7.57Z"/><path class="startups-4" d="M216.14,244.54a1.34,1.34,0,0,0-2.19.35l-16.43,34.95a1.34,1.34,0,0,1-2.34.15L175.27,248.4a1.35,1.35,0,0,0-1.38-.6L149,252.46a1.34,1.34,0,0,1-1.53-.92l-6.67-21.87a1.34,1.34,0,0,0-1.6-.91l-15.72,5.34c-6.86,1.7-13.51-1.67-15.22-8.53h0a1.35,1.35,0,0,1,1-1.63l39.57-12.14a1.32,1.32,0,0,1,1.6.91l6.9,22.59a1.34,1.34,0,0,0,1.53.93l21.85-4.1a1.35,1.35,0,0,1,1.38.6l11.26,17.86a1.34,1.34,0,0,0,2.35-.15L210,220.14a1.34,1.34,0,0,1,2.18-.35l23.16,24.39Z"/><path class="startups-5" d="M226.77,189.24l4.74-14c8.6-27.11,12.33-54.51,12.06-89.76-27.08,16.35-48.85,34.58-66.3,55.5l-6.21,8.23-6.22,8.23c3.68-14.34,12.53-31.38,26.06-50.85,16-14.37,34.56-27.41,56-39.43l7.08-4a2.15,2.15,0,0,1,3.2,1.81l.25,8.1c.73,23.68-.09,44-2.67,62.83C246.39,158.53,236.89,175.47,226.77,189.24Z"/><path class="startups-6" d="M226.77,189.24a1.35,1.35,0,0,0,.59,1.59l4,2.36c16.86,10,11.35,35.41,6.19,50.49a1.35,1.35,0,0,1-2.25.5l-19.16.36,23.59,24.83a1.34,1.34,0,0,0,2.17-.33l3.63-7.38a128,128,0,0,0,10-30.84c4.36-24.66-2.82-38.32-11.46-45.86a1.33,1.33,0,0,1-.39-1.43l1.3-3.84A259,259,0,0,0,254.8,136C253.82,137,226.77,189.24,226.77,189.24Z"/><path class="startups-2" d="M209.5,188.63a16.85,16.85,0,0,1-14.25-25.78,16.84,16.84,0,0,1,30.38,4,16.72,16.72,0,0,1-1.25,12.83h0a16.73,16.73,0,0,1-9.94,8.19A17.15,17.15,0,0,1,209.5,188.63Zm0-24.25a7.41,7.41,0,1,0,6.52,10.89h0a7.42,7.42,0,0,0-3.05-10A7.48,7.48,0,0,0,209.54,164.38Z"/><path class="startups-7" d="M126.11,140.1v64.48H111.19V152.07H98.29v-12Z"/><path class="startups-7" d="M185.52,192.42v12.16H136.79v-9.67l24.87-23.49a26.36,26.36,0,0,0,5.35-6.5,11.79,11.79,0,0,0,1.38-5.38,7.16,7.16,0,0,0-2.63-5.95q-2.62-2.07-7.69-2.07a17.71,17.71,0,0,0-7.64,1.61,14.6,14.6,0,0,0-5.71,4.84l-10.87-7a25.38,25.38,0,0,1,10.41-8.8A34.7,34.7,0,0,1,159.45,139,31.37,31.37,0,0,1,172,141.34a19.42,19.42,0,0,1,8.38,6.64,17.16,17.16,0,0,1,3,10.08,22.41,22.41,0,0,1-2.21,9.86q-2.2,4.61-8.56,10.5l-14.83,14Z"/><path class="startups-7" d="M249.82,191h-10.5v13.54H224.76V191H190V181l30.39-40.9h15.66l-28.18,38.78h17.31V166.81h14.1v12.07h10.5Z"/></svg>