<svg id="Layer_1" data-name="Layer 1" xmlns="http://www.w3.org/2000/svg" viewBox="0 0 350.89 344"><defs><style>.worldwide-1{fill:#084473;}.worldwide-2{fill:#984da7;}.worldwide-3{fill:#75caf3;}.worldwide-4{fill:#1c9bd8;}.worldwide-5{fill:#0768b1;}.worldwide-6{fill:#931f7f;}.worldwide-7{fill:#fff;}</style></defs><title>stats</title><circle class="worldwide-1" cx="172.7" cy="171.79" r="164.93"/><path class="worldwide-2" d="M250.05,145.87v0Zm-30.65,20"/><path class="worldwide-3" d="M219,165.62a19.06,19.06,0,0,1-11.81,9c-15.62,4.37-43.37-3.94-55.85-8.21C145,174,134.87,184.08,125.43,184.1h-.11a13.51,13.51,0,0,1-11-5.65c-3.6-4.84-6.13-11.65-7.88-18.07a15.91,15.91,0,0,1,13.68-20h0c.73,6.87,3.14,19.07,6.71,25.7,3.61-2.25,10-8.67,14.6-15l3.87-5.26,6.11,2.32c14.17,5.39,40.58,12.84,51.1,9.88,1.11-.31,1.31-.67,1.44-.9,2.17-3.87-1.12-15.57-2.71-21.19-1.36-4.86-2.35-8.37-2.34-11.44C213.75,128.6,227.53,149.89,219,165.62Z"/><path class="worldwide-4" d="M121.85,84.13c43.38-25.19,99.94-15,131.25,25.66a11.65,11.65,0,0,1,1.09,12.64,11.94,11.94,0,0,1-11.05,6.34c-13.35-.66-21.55-.26-26,.33.21.77.43,1.55.63,2.25,2.87,10.21,7.16,24.39,1.14,34.27-2.29-29.16-20.05-41.05-20.05-41.05a10.67,10.67,0,0,1,3.43-7.73c2.21-2.09,6.07-5.74,29.05-5.62a84.06,84.06,0,0,0-55.19-23.5A274.93,274.93,0,0,0,121.85,84.13Z"/><path class="worldwide-5" d="M84.51,221.54A101.21,101.21,0,0,1,121.85,84.13a275.24,275.24,0,0,1,54.33,3.59,83.9,83.9,0,0,0-85.67,66.62C83.49,186.21,82.24,202.5,84.51,221.54Z"/><path class="worldwide-6" d="M231.32,155.86c5.19-10.34,15.15-18.14,20.5-21.8a10.19,10.19,0,0,1,4-1.71,10.62,10.62,0,0,1,12.25,7.83c2.65,10.51,6.91,30,5.61,42.19A101.39,101.39,0,0,1,84.51,221.54c-11-20.3-6-50.36,6-67.2a84.17,84.17,0,1,0,166.05,26.22c.57-5.35-.47-14.7-2.83-26Z"/><path class="worldwide-2" d="M253.73,154.57c-5.17,4.94-9.15,10.73-8.46,15.73,2.43,17.62,2.41,25.48,2.41,25.81l0,8.13-8.13.41c-37.07,1.87-46,36-46.38,37.42l-1.53,6.14-6.34.4c-3.26.18-32.26,1.5-49.18-8.86l-5.6-3.43,1.83-6.31c1.53-5.23.89-10.12-1.57-12.17-1.33-1.1-3.36-1.56-5.89-1.41-8.17.51-15.95-3.48-19.62-10.8l-.37-.73c20.2-10.15,31.78-4.54,36.88-.29,6.28,5.22,9.28,13.61,8.48,22.89,8.62,3.15,20.38,4,28.22,4.05,6-15.81,21.85-38.12,51.59-43.15-.32-3.75-.87-9-1.8-15.76a28.38,28.38,0,0,1,3.09-16.78Z"/><path class="worldwide-7" d="M164.89,192.42v12.16H116.16v-9.67L141,171.42a26.36,26.36,0,0,0,5.35-6.5,11.79,11.79,0,0,0,1.38-5.38,7.16,7.16,0,0,0-2.63-5.95q-2.62-2.07-7.69-2.07a17.76,17.76,0,0,0-7.65,1.61,14.74,14.74,0,0,0-5.71,4.84l-10.86-7a25.42,25.42,0,0,1,10.4-8.8,34.75,34.75,0,0,1,15.2-3.18,31.41,31.41,0,0,1,12.58,2.35,19.42,19.42,0,0,1,8.38,6.64,17.16,17.16,0,0,1,3,10.08,22.55,22.55,0,0,1-2.21,9.86q-2.2,4.61-8.57,10.5l-14.83,14Z"/><path class="worldwide-7" d="M229.18,191h-10.5v13.54H204.13V191H169.4V181l30.4-40.9h15.66l-28.19,38.78h17.32V166.81h14.09v12.07h10.5Z"/></svg>