<svg id="Layer_1" data-name="Layer 1" xmlns="http://www.w3.org/2000/svg" viewBox="0 0 350.89 344"><defs><style>.years-1{fill:#084473;}.years-2{fill:#75caf3;}.years-3{fill:#1c9bd8;}.years-4{fill:#0768b1;}.years-5{fill:#931f7f;}.years-6{fill:#984da7;}.years-7{fill:#fff;}</style></defs><title>stats</title><circle class="years-1" cx="174.81" cy="171.79" r="164.93"/><path class="years-2" d="M145.29,74.25a105.25,105.25,0,0,1,31.47-4.8h6.73v98l26.32,25.14a17.37,17.37,0,0,1,.56,24.55h0l-44.24-42.26V87.26Z"/><path class="years-3" d="M108.08,119.24a84.93,84.93,0,0,1,58.05-32l-20.84-13c-41.24,12.91-72,50.45-72.8,95.62C80.93,155.57,93.44,138.06,108.08,119.24Z"/><path class="years-4" d="M222.34,262.38C206,270.65,195.77,273.07,181,273.94A102.44,102.44,0,0,1,72.49,169.87c6.65-25.07,17.14-35.59,35.59-50.63a84.91,84.91,0,0,0,37.21,132.23S163.61,261.62,222.34,262.38Z"/><path class="years-5" d="M255.62,198.08a85.1,85.1,0,0,1-87.06,58.45,83.61,83.61,0,0,1-23.27-5.06c10.69,11.68,48.22,19.18,77.05,10.91a102.28,102.28,0,0,0,43.35-137.69C266.06,150.57,261.06,178.09,255.62,198.08Z"/><path class="years-6" d="M255.62,198.08A85.07,85.07,0,0,0,216.11,97.49a18.37,18.37,0,0,1-8.76-21.93l.25-.74a102.18,102.18,0,0,1,58.09,49.87C276.07,145.57,273.56,178.09,255.62,198.08Z"/><path class="years-7" d="M194.25,168.62q6.57,5.5,6.58,14.73a20.44,20.44,0,0,1-3,10.86,20.88,20.88,0,0,1-9.09,7.83q-6.1,2.94-15.06,2.94a51.35,51.35,0,0,1-13.56-1.82A34.73,34.73,0,0,1,148.8,198l6-11.56a28.61,28.61,0,0,0,8.58,4.33,32.66,32.66,0,0,0,10,1.54q5.69,0,9-2.24a7.14,7.14,0,0,0,3.26-6.25,7,7,0,0,0-3.4-6.33q-3.4-2.16-11.8-2.15H153.65L157,138.59h39.82v12.13H169.59l-1,12.4h5.32Q187.68,163.12,194.25,168.62Z"/></svg>